<svg width="604" height="319" xmlns="http://www.w3.org/2000/svg" xmlns:xlink="http://www.w3.org/1999/xlink" overflow="hidden"><defs><clipPath id="clip0"><rect x="0" y="0" width="604" height="319"/></clipPath><clipPath id="clip1"><rect x="0" y="80" width="303" height="160"/></clipPath><clipPath id="clip2"><rect x="0" y="80" width="303" height="160"/></clipPath><clipPath id="clip3"><rect x="0" y="80" width="303" height="160"/></clipPath><clipPath id="clip4"><rect x="0" y="80" width="303" height="160"/></clipPath></defs><g clip-path="url(#clip0)"><rect x="0" y="0" width="604" height="319.176" fill="#FFFFFF" fill-opacity="0"/><g clip-path="url(#clip1)"><g clip-path="url(#clip2)"><g clip-path="url(#clip3)"><g clip-path="url(#clip4)"><text fill="#FF0000" font-family="Avenir,Avenir_MSFontService,sans-serif" font-weight="400" font-size="267" transform="matrix(0.5 0 0 0.498982 8.16215 203)">le</text><text fill="#FF0000" font-family="Avenir Medium,Avenir Medium_MSFontService,sans-serif" font-weight="700" font-size="267" transform="matrix(0.5 0 0 0.498982 114.271 203)">car</text></g></g></g></g><g><g><g><g><path d="M0 44.8341C-1.71236e-14 20.073 20.073 0 44.8341 0L224.166 0C248.927-8.56181e-15 269 20.073 269 44.8341L269 224.166C269 248.927 248.927 269 224.166 269L44.8341 269C20.073 269 0 248.927 0 224.166Z" fill="#5DC6B5" fill-rule="evenodd" transform="matrix(1 0 0 1.00055 319 25.0138)"/><text font-family="Achemine,Achemine_MSFontService,sans-serif" font-weight="400" font-size="564" transform="matrix(0.386494 0 0 0.386708 332.294 240)">4</text><text font-family="Achemine,Achemine_MSFontService,sans-serif" font-weight="400" font-size="564" transform="matrix(0.386494 0 0 0.386708 453.496 240)">0</text></g></g></g></g></g></svg>